<?xml version="1.0" encoding="utf-8"?>
<!-- Generator: Adobe Illustrator 22.1.0, SVG Export Plug-In . SVG Version: 6.00 Build 0)  -->
<svg version="1.1" id="Calque_1" xmlns="http://www.w3.org/2000/svg" xmlns:xlink="http://www.w3.org/1999/xlink" x="0px" y="0px"
	 viewBox="0 0 1920 1080" style="enable-background:new 0 0 1920 1080;" xml:space="preserve">
<style type="text/css">
	.st0{fill:#353535;}
	.st1{fill:none;}
</style>
<g>
	<path class="st0" d="M85.7,488c-8.9,0-15.6,0.7-20.3,2.1c-4.6,1.4-7,3.1-7,5.1c0,5.7,7.9,13.4,23.8,23.2
		c15.8,9.8,34.4,18.5,55.7,26c21.3,7.6,39.8,11.4,55.6,11.4c11.1,0,19.2-1.7,24.2-5c5-3.3,7.6-8.6,7.6-15.9c0-5.9-1.2-13-3.5-21.5
		c-2.3-8.5-6-20.6-11.1-36.3c-5.3-15.9-9.1-28.6-11.7-38c-2.5-9.4-3.8-17.2-3.8-23.5c0-10.3,6.5-15.4,19.4-15.4
		c10.5,0,21.1,2.6,31.8,7.9c10.7,5.3,19.5,12,26.5,20.3c7,8.3,10.5,16.7,10.5,25.1c0,8.1-1.9,15.1-5.8,21.2c1-4.6,1.5-8.8,1.5-12.4
		c0-12.3-3.9-22.9-11.7-31.8c-7.8-8.9-17-15.6-27.6-20.3c-10.6-4.6-19.9-7-28-7c-4,0-7.2,0.9-9.5,2.7c-2.3,1.8-3.5,4.6-3.5,8.5
		c0,5.3,1.2,11.8,3.6,19.5c2.4,7.8,6.2,18.7,11.2,32.9c5.7,14.9,10,27.7,13.2,38.2c3.1,10.5,4.7,19.5,4.7,27
		c0,9.7-3.1,16.8-9.2,21.2c-6.2,4.4-15.5,6.7-28,6.7c-15.6,0-34.6-3.9-57.2-11.7c-22.6-7.8-42.3-16.9-59.1-27.3
		C61.4,510.5,53,501.5,53,494c0-3,2.5-5.3,7.4-6.8c4.9-1.5,11.1-2.3,18.3-2.3c5.7,0,10.9,0.4,15.7,1.2c4.8,0.8,7.8,1.7,8.8,2.7
		C96.6,488.3,90.8,488,85.7,488z"/>
	<path class="st0" d="M379.2,524.9c-0.6,1.8-4,3.8-10.3,6.1c-6.3,2.2-12.7,3.4-19.4,3.6c-13.1,0-23.6-1.5-31.5-4.5
		c-1.4,5.7-3.8,10.4-7.1,14.4c-3.3,3.9-7.1,5.9-11.4,5.9c-3,0-5.5-1-7.3-3c-1.8-2-2.7-4.7-2.7-8.2c0-4.6,1.2-9,3.6-13
		c2.4-4,5.2-7.3,8.5-9.7c-1.4-3.6-2.1-7.2-2.1-10.6c0-2.4,0.6-4.3,1.8-5.8c1.2-1.4,2.8-2.1,4.8-2.1c3.8,0,7,2.1,9.5,6.4
		c2.5,4.2,3.8,9.4,3.8,15.4c0,2.6-0.3,5.1-0.9,7.6c8.3,3.8,18.2,5.8,29.7,5.8C359.8,533.1,370.1,530.4,379.2,524.9z M309.8,541.3
		c2.6-3.4,4.6-7.6,6.1-12.4c-5.9-2.6-10.2-6.1-13-10.3c-5,6.3-7.6,12.9-7.6,20c0,2.4,0.5,4.3,1.5,5.8c1,1.4,2.3,2.1,3.9,2.1
		C304.2,546.4,307.2,544.7,309.8,541.3z M304.7,514.3l0.9-0.3c0.6-0.4,1.4-0.7,2.3-0.8c0.9-0.1,1.5,0,1.7,0.2c-2,1-3.3,1.8-3.9,2.4
		c2.4,4,6.1,7.5,10.9,10.3c0.4-2.8,0.6-4.9,0.6-6.4c0-5.7-1-10.3-3-14.1c-2-3.7-4.5-5.6-7.6-5.6c-1,0-1.9,0.5-2.6,1.5
		c-0.7,1-1.1,2.3-1.1,3.9C302.9,509,303.5,511.9,304.7,514.3z"/>
	<path class="st0" d="M424.5,548.7c9-3.5,17.1-7.7,24.4-12.4c7.3-4.7,12.1-8.7,14.5-12c-0.8,3-4.9,7.1-12.3,12.3
		c-7.4,5.1-16,9.6-25.7,13.5c-9.8,3.8-18.4,5.8-25.9,5.8c-7.9,0-13.8-2.3-17.7-6.8c-3.9-4.5-5.9-11.2-5.9-19.8
		c0-9.9,3.8-21.2,11.5-33.9c7.7-12.7,16.8-23.7,27.4-32.9c10.6-9.2,20-13.8,28.3-13.8c6.7,0,10,3.7,10,11.2
		c0,7.3-3.5,15.1-10.4,23.6c-7,8.5-16.1,16.4-27.3,23.8c-11.2,7.4-22.9,13.1-35,17.1c-0.4,3.2-0.6,5.6-0.6,7
		c0,15.1,6.6,22.7,19.7,22.7C407.1,554,415.5,552.3,424.5,548.7z M419.5,463.3c-9.3,8-17.7,17.7-25.1,29.2
		c-7.5,11.5-12.1,22.1-13.9,31.8c17.4-8.5,33.4-18.6,48-30.4c14.6-11.8,22-23.2,22-34.1c0-5.7-2.3-8.5-7-8.5
		C436.7,451.3,428.7,455.3,419.5,463.3z"/>
	<path class="st0" d="M508,542.1c11.6-4.1,23-9.9,34.1-17.4c-1.4,2.4-5.8,5.8-13.2,10c-7.4,4.2-15.6,7.9-24.5,11.1
		c-9,3.1-16.6,4.7-22.9,4.7c-14.3,0-21.5-5.7-21.5-17c0-5,1.9-9.9,5.8-14.5c3.8-4.6,7.9-7,12.1-7c2.4,0,3.6,1,3.6,3
		c0,2.2-1.4,4.3-4.2,6.4c-2.8,2-6.1,2.7-9.7,2.1c-1.8,3.2-2.7,6.9-2.7,10.9c0,9.3,5.7,13.9,17,13.9
		C487.7,548.3,496.4,546.2,508,542.1z M472.5,516.8c-1.8,1.8-3.4,4-4.8,6.7c2-0.2,4.1-1.1,6.2-2.6c2.1-1.5,3.6-3,4.4-4.5
		c0.8-1.5,0.6-2.3-0.6-2.3C476,514,474.3,514.9,472.5,516.8z"/>
	<path class="st0" d="M615.1,535.8c-5.5,3.6-11.8,6.7-19.1,9.2c-7.3,2.5-14.2,3.8-20.9,3.8c-8.5,0-14.5-2.7-18.2-8.2
		c-3.6-5.5-5.6-10.5-5.8-15.1c-2.4,3.6-4.8,7.1-7.1,10.3c-2.3,3.2-3.9,4.8-4.7,4.8c-1.4,0-2.1-0.9-2.1-2.7c0-4.2,1.4-9.9,4.2-17
		c0.4-1,1-1.8,1.7-2.3c0.7-0.5,1.4-0.8,2-0.8s1,0.2,1.2,0.5c0.2,0.3,0.2,0.8,0,1.4c-2.6,5-4.5,11-5.8,17.9c0.4,0,1.7-1.8,3.9-5.5
		c2.2-3.6,3.8-6.2,4.8-7.6c0.8-1.4,1.9-2.1,3.3-2.1c1,0,1.6,0.4,1.8,1.2c0.2,0.8,0.8,3.4,1.8,7.7c1,4.3,3.1,8,6.4,10.9
		c3.2,2.9,7.5,4.4,12.7,4.4c8.3,0,16.8-1.9,25.6-5.6c8.8-3.7,16.9-8.9,24.4-15.6C624,528.8,620.6,532.2,615.1,535.8z"/>
	<path class="st0" d="M669.2,542.1c11.6-4.1,23-9.9,34.1-17.4c-1.4,2.4-5.8,5.8-13.2,10c-7.4,4.2-15.6,7.9-24.5,11.1
		c-9,3.1-16.6,4.7-22.9,4.7c-14.3,0-21.5-5.7-21.5-17c0-5,1.9-9.9,5.8-14.5c3.8-4.6,7.9-7,12.1-7c2.4,0,3.6,1,3.6,3
		c0,2.2-1.4,4.3-4.2,6.4c-2.8,2-6.1,2.7-9.7,2.1c-1.8,3.2-2.7,6.9-2.7,10.9c0,9.3,5.7,13.9,17,13.9
		C648.8,548.3,657.5,546.2,669.2,542.1z M633.6,516.8c-1.8,1.8-3.4,4-4.8,6.7c2-0.2,4.1-1.1,6.2-2.6s3.6-3,4.4-4.5
		c0.8-1.5,0.6-2.3-0.6-2.3C637.1,514,635.4,514.9,633.6,516.8z"/>
	<path class="st0" d="M949.5,512.7c-4-11.8-6.1-24.7-6.1-38.6c0-10.7,1.1-19.5,3.3-26.3c-9.7,9.7-18.5,21.4-26.3,35
		c-7.9,13.6-14,27.4-18.5,41.3c-4.4,13.9-6.7,26-6.7,36.3c0,8.1,1.5,14.3,4.4,18.8c2.9,4.4,7.3,6.7,13.2,6.7
		c15.1,0,33.5-7.6,55-22.9c21.5-15.2,40.2-33.3,56.2-54.2c15.9-20.9,23.9-38.9,23.9-54.1c0-12.7-5.6-22.9-16.8-30.4
		c-11.2-7.6-27.4-11.4-48.6-11.4c-41.2,0-79.4,8.9-114.5,26.7c-35.1,17.8-63,39.1-83.6,64.1c-20.6,24.9-30.9,46.7-30.9,65.3
		c0,13.5,8.8,20.3,26.3,20.3c6.1,0,12.5-0.7,19.4-2.1c-8.5,3-16.1,4.5-22.7,4.5c-8.3,0-14.8-2.2-19.5-6.5
		c-4.7-4.3-7.1-10.4-7.1-18.3c0-18,10.4-39.5,31.2-64.5c20.8-25,49-46.7,84.5-65c35.5-18.3,74.5-27.4,116.9-27.4
		c22.6,0,40,3.9,52.1,11.8c12.1,7.9,18.2,18.9,18.2,33c0,15.6-7.7,34.2-23.2,56c-15.4,21.8-34.2,40.6-56.3,56.3
		c-22.1,15.7-42.5,23.6-61,23.6c-6.9,0-12.1-2.5-15.7-7.6c-3.6-5-5.5-11.8-5.5-20.3c0-11.3,2.5-24.2,7.6-38.8
		c5-14.5,11.8-28.8,20.3-42.9c8.5-14,17.7-26,27.6-35.9c1-1,2-1.5,3-1.5c1.2,0,1.7,0.7,1.5,2.1c-1.6,7.5-2.4,16.2-2.4,26
		c0,12.5,1.5,24.3,4.5,35.4c3,11.1,7.2,20,12.4,26.7C958.8,531.6,953.5,524.5,949.5,512.7z"/>
	<path class="st0" d="M1133.1,542.1c11.6-4.1,23-9.9,34.1-17.4c-1.4,2.4-5.8,5.8-13.2,10c-7.4,4.2-15.6,7.9-24.5,11.1
		c-9,3.1-16.6,4.7-22.9,4.7c-14.3,0-21.5-5.7-21.5-17c0-5,1.9-9.9,5.8-14.5c3.8-4.6,7.9-7,12.1-7c2.4,0,3.6,1,3.6,3
		c0,2.2-1.4,4.3-4.2,6.4c-2.8,2-6.1,2.7-9.7,2.1c-1.8,3.2-2.7,6.9-2.7,10.9c0,9.3,5.7,13.9,17,13.9
		C1112.8,548.3,1121.5,546.2,1133.1,542.1z M1097.6,516.8c-1.8,1.8-3.4,4-4.8,6.7c2-0.2,4.1-1.1,6.2-2.6s3.6-3,4.4-4.5
		c0.8-1.5,0.6-2.3-0.6-2.3C1101.1,514,1099.4,514.9,1097.6,516.8z"/>
	<path class="st0" d="M1258.7,522.7c-12.3,2.7-24.2,6.1-35.7,10.1c0.2,0.2,0.3,0.7,0.3,1.5c0,3.2-1.7,6.6-5.1,10
		c-3.4,3.4-7.6,6.3-12.6,8.6c-4.9,2.3-9.2,3.5-12.9,3.5c-4.2,0-6.4-1.5-6.4-4.5c0-5.2,10.3-11.7,30.9-19.4c-1.6-2.6-8-3.9-19.1-3.9
		l-17.3,0.3c-5.9,0-10.4-0.4-13.6-1.1c-3.2-0.7-4.8-2.1-4.8-4.1c0-3.6,2.6-7.1,7.7-10.4c5.1-3.3,9.6-5,13.5-5c2.8,0,3.6,1.1,2.4,3.3
		c-0.2-1.4-1-2.1-2.4-2.1c-2.6,0-6,1.8-10,5.3c-4,3.5-6.1,6.4-6.1,8.6c0,2.4,5.6,3.6,16.7,3.6h14.2c6.3,0,11.3,0.3,15.1,0.8
		c3.8,0.5,6.6,1.6,8.2,3.2c11.3-3.8,22.9-7.1,34.7-9.7c11.8-2.6,21-3.9,27.7-3.9c3.6,0,6,0.4,7,1.2
		C1281.8,518.6,1271,519.9,1258.7,522.7z M1201.3,550.1c4.1-2.2,7.9-4.8,11.2-7.9c3.3-3,5.1-5.6,5.3-7.6c-8.7,3.2-15.6,6.4-20.9,9.5
		c-5.3,3.1-7.9,5.6-7.9,7.4c0,1.2,0.7,1.8,2.1,1.8C1193.8,553.4,1197.1,552.3,1201.3,550.1z"/>
	<path class="st0" d="M1438.9,534.2c-5.3,3.5-11.5,6.7-18.6,9.5c-7.2,2.8-14,4.2-20.4,4.2c-5,0-8.7-1.3-11.1-3.9
		c-2.3-2.6-4.5-6.4-6.5-11.2c-1.2-3-2.3-5.3-3.3-6.8c-1-1.5-2.4-2.3-4.2-2.3c-3.4,0-7.3,1-11.7,2.9c-4.3,1.9-9.8,4.7-16.5,8.3
		c-8.9,4.8-14.6,7.3-17.3,7.3c-2.6,0-4.6-0.9-6.1-2.7c-1.4-1.8-2.6-4.3-3.6-7.6c-0.6-1.4-1.2-2.7-1.8-3.8c-0.6-1.1-1.2-1.7-1.8-1.7
		c-2,0-6.7,2.6-13.9,7.9c-2.6,2-5.3,3.8-7.9,5.5c-2.6,1.6-4.6,2.4-6.1,2.4c-1.6,0-2.9-0.9-3.8-2.6c-0.9-1.7-1.4-4-1.4-6.8
		c0-3.2,0.5-6.3,1.4-9.1c0.9-2.8,2-4.6,3.2-5.5c1-0.6,2-0.9,3-0.9c1,0,1.3,0.3,0.9,0.9c-2.6,5.3-3.9,10-3.9,14.2
		c0,4.4,0.5,6.7,1.5,6.7c1,0,4.2-1.8,9.7-5.5c9.1-6.5,15.3-9.7,18.8-9.7c2.6,0,4.5,0.9,5.8,2.6c1.2,1.7,2.2,4.2,3,7.4
		c0.2,0.4,0.5,1.2,0.9,2.4c0.4,1.2,0.9,2.1,1.4,2.7c0.5,0.6,1.2,0.9,2,0.9c1.2,0,3.5-0.9,7-2.6c3.4-1.7,5.9-3,7.3-3.8
		c14.7-8.5,25.4-12.7,32.1-12.7c3.2,0,5.6,1,7.1,2.9c1.5,1.9,3,4.9,4.4,8.9c1.4,4.2,3,7.5,4.7,9.7c1.7,2.2,4.5,3.3,8.3,3.3
		c7.7,0,16.1-2.3,25.1-6.8c9.1-4.5,16.1-8.7,20.9-12.6C1446.9,528.1,1444.1,530.6,1438.9,534.2z"/>
	<path class="st0" d="M1517.5,534.2c-4.1,2.9-8.9,5.5-14.4,7.6c-5.5,2.1-10.5,3.2-15.1,3.2c-6.3,0-11.3-1-15-3
		c-3.7-2-7.4-4.7-11.1-8.2c-2.4-2.4-4.1-3.6-5.1-3.6c-0.8,0-2,0.8-3.6,2.3c-1.6,1.5-3,3-4.2,4.4c-1.2,1.4-2.1,2.5-2.7,3.3
		c-4.6,6.3-7.9,9.4-9.7,9.4c-1,0-1.9-0.4-2.6-1.2c-0.7-0.8-1.1-1.8-1.1-3c0-3.2,1.8-7,5.3-11.4c3.5-4.3,7.5-8.1,12-11.2
		c4.4-3.1,8-4.7,10.6-4.7c1,0,1.8,0.3,2.4,0.8c0.6,0.5,0.9,1.1,0.9,1.7c0,0.8-0.5,1.7-1.5,2.7c0.2-0.2,0.3-0.7,0.3-1.5
		c0-1.4-0.6-2.1-1.8-2.1c-2.8,0-6.1,1.8-9.8,5.3c-3.7,3.5-7,7.6-9.7,12.1c-2.7,4.5-4.1,7.8-4.1,9.8c1.4-1.2,3.5-3.5,6.4-7
		c4.2-4.6,7.4-8,9.4-10c2-2,3.8-3,5.5-3c1.4,0,2.7,0.4,3.8,1.2c1.1,0.8,2.7,2.2,4.7,4.2c2.8,3.2,5.8,5.8,8.9,7.7
		c3.1,1.9,7.1,2.9,12,2.9c6.9,0,13.3-1.5,19.2-4.5c6-3,11.9-6.9,17.7-11.5C1524.1,528.8,1521.6,531.3,1517.5,534.2z"/>
	<path class="st0" d="M1572,548.7c9-3.5,17.1-7.7,24.4-12.4c7.3-4.7,12.1-8.7,14.5-12c-0.8,3-4.9,7.1-12.3,12.3
		c-7.4,5.1-16,9.6-25.7,13.5c-9.8,3.8-18.4,5.8-25.9,5.8c-7.9,0-13.8-2.3-17.7-6.8c-3.9-4.5-5.9-11.2-5.9-19.8
		c0-9.9,3.8-21.2,11.5-33.9c7.7-12.7,16.8-23.7,27.4-32.9c10.6-9.2,20-13.8,28.3-13.8c6.7,0,10,3.7,10,11.2
		c0,7.3-3.5,15.1-10.4,23.6c-7,8.5-16.1,16.4-27.3,23.8c-11.2,7.4-22.9,13.1-35,17.1c-0.4,3.2-0.6,5.6-0.6,7
		c0,15.1,6.6,22.7,19.7,22.7C1554.7,554,1563,552.3,1572,548.7z M1567,463.3c-9.3,8-17.7,17.7-25.1,29.2
		c-7.5,11.5-12.1,22.1-13.9,31.8c17.4-8.5,33.4-18.6,48-30.4c14.6-11.8,22-23.2,22-34.1c0-5.7-2.3-8.5-7-8.5
		C1584.2,451.3,1576.3,455.3,1567,463.3z"/>
	<path class="st0" d="M1656.5,548.7c9-3.5,17.1-7.7,24.4-12.4c7.3-4.7,12.1-8.7,14.5-12c-0.8,3-4.9,7.1-12.3,12.3
		c-7.4,5.1-16,9.6-25.7,13.5c-9.8,3.8-18.4,5.8-25.9,5.8c-7.9,0-13.8-2.3-17.7-6.8c-3.9-4.5-5.9-11.2-5.9-19.8
		c0-9.9,3.8-21.2,11.5-33.9c7.7-12.7,16.8-23.7,27.4-32.9c10.6-9.2,20-13.8,28.3-13.8c6.7,0,10,3.7,10,11.2
		c0,7.3-3.5,15.1-10.4,23.6c-7,8.5-16.1,16.4-27.3,23.8c-11.2,7.4-22.9,13.1-35,17.1c-0.4,3.2-0.6,5.6-0.6,7
		c0,15.1,6.6,22.7,19.7,22.7C1639.2,554,1647.5,552.3,1656.5,548.7z M1651.5,463.3c-9.3,8-17.7,17.7-25.1,29.2
		c-7.5,11.5-12.1,22.1-13.9,31.8c17.4-8.5,33.4-18.6,48-30.4c14.6-11.8,22-23.2,22-34.1c0-5.7-2.3-8.5-7-8.5
		C1668.7,451.3,1660.8,455.3,1651.5,463.3z"/>
	<path class="st0" d="M1740.1,542.1c11.6-4.1,23-9.9,34.1-17.4c-1.4,2.4-5.8,5.8-13.2,10c-7.4,4.2-15.6,7.9-24.5,11.1
		c-9,3.1-16.6,4.7-22.9,4.7c-14.3,0-21.5-5.7-21.5-17c0-5,1.9-9.9,5.8-14.5c3.8-4.6,7.9-7,12.1-7c2.4,0,3.6,1,3.6,3
		c0,2.2-1.4,4.3-4.2,6.4c-2.8,2-6.1,2.7-9.7,2.1c-1.8,3.2-2.7,6.9-2.7,10.9c0,9.3,5.7,13.9,17,13.9
		C1719.7,548.3,1728.4,546.2,1740.1,542.1z M1704.5,516.8c-1.8,1.8-3.4,4-4.8,6.7c2-0.2,4.1-1.1,6.2-2.6s3.6-3,4.4-4.5
		c0.8-1.5,0.6-2.3-0.6-2.3C1708,514,1706.3,514.9,1704.5,516.8z"/>
	<path class="st0" d="M1865.6,522.7c-12.3,2.7-24.2,6.1-35.7,10.1c0.2,0.2,0.3,0.7,0.3,1.5c0,3.2-1.7,6.6-5.1,10
		c-3.4,3.4-7.6,6.3-12.6,8.6c-4.9,2.3-9.2,3.5-12.9,3.5c-4.2,0-6.4-1.5-6.4-4.5c0-5.2,10.3-11.7,30.9-19.4c-1.6-2.6-8-3.9-19.1-3.9
		l-17.3,0.3c-5.9,0-10.4-0.4-13.6-1.1c-3.2-0.7-4.8-2.1-4.8-4.1c0-3.6,2.6-7.1,7.7-10.4c5.1-3.3,9.6-5,13.5-5c2.8,0,3.6,1.1,2.4,3.3
		c-0.2-1.4-1-2.1-2.4-2.1c-2.6,0-6,1.8-10,5.3c-4,3.5-6.1,6.4-6.1,8.6c0,2.4,5.6,3.6,16.7,3.6h14.2c6.3,0,11.3,0.3,15.1,0.8
		c3.8,0.5,6.6,1.6,8.2,3.2c11.3-3.8,22.9-7.1,34.7-9.7c11.8-2.6,21-3.9,27.7-3.9c3.6,0,6,0.4,7,1.2
		C1888.7,518.6,1877.9,519.9,1865.6,522.7z M1808.2,550.1c4.1-2.2,7.9-4.8,11.2-7.9c3.3-3,5.1-5.6,5.3-7.6
		c-8.7,3.2-15.6,6.4-20.9,9.5c-5.3,3.1-7.9,5.6-7.9,7.4c0,1.2,0.7,1.8,2.1,1.8C1800.7,553.4,1804.1,552.3,1808.2,550.1z"/>
</g>
<polygon class="st1" points="732.5,374.6 736.3,374.6 736.3,374.6 732.5,374.6 "/>
</svg>
